<svg width="155" height="53" viewBox="0 0 155 53" fill="none" xmlns="http://www.w3.org/2000/svg">
<path d="M11.5135 39.7362C11.5135 39.5032 11.4923 39.2279 11.4288 38.9313C11.3653 38.656 11.2805 38.3595 11.1535 38.063C11.0264 37.7665 10.8569 37.4911 10.6451 37.1946C10.4545 36.9193 10.2004 36.6863 9.92503 36.4745C9.62851 36.2415 9.31081 36.0932 8.9084 35.945C8.52716 35.8179 8.10356 35.7544 7.63761 35.7544C7.12929 35.7544 6.70569 35.8391 6.36682 35.9874C6.00676 36.1568 5.73142 36.3474 5.47726 36.5804C5.24428 36.8134 5.05367 37.0675 4.90541 37.3429C4.77833 37.6182 4.67243 37.8724 4.60889 38.1053H1.43191C1.53781 37.3005 1.79197 36.6016 2.13085 35.9662C2.46973 35.3308 2.9145 34.8013 3.46518 34.3565C4.01585 33.9329 4.67243 33.594 5.41372 33.361C6.15502 33.1281 6.98103 33.001 7.89176 33.001C8.67542 33.001 9.37435 33.1069 10.0309 33.2975C10.6663 33.4881 11.2382 33.7635 11.7677 34.1235C12.276 34.4624 12.7419 34.886 13.1232 35.3731C13.5044 35.8603 13.8221 36.3898 14.0975 36.9828C14.3516 37.5758 14.5422 38.1901 14.6693 38.8466C14.7964 39.5032 14.8599 40.2021 14.8599 40.8799C14.8599 42.0024 14.754 42.9767 14.5422 43.8027C14.3093 44.6287 14.0127 45.3488 13.6527 45.9419C13.2714 46.5561 12.8478 47.0432 12.3819 47.4245C11.8948 47.8269 11.3864 48.1446 10.8781 48.3564C10.3698 48.5894 9.84031 48.7376 9.33199 48.8435C8.84486 48.9282 8.35772 48.9706 7.93412 48.9706C7.00221 48.9706 6.1762 48.8435 5.4349 48.5682C4.69361 48.2717 4.05821 47.9116 3.52872 47.4245C2.97804 46.9585 2.53326 46.3867 2.19439 45.7513C1.83433 45.0947 1.60135 44.4169 1.45309 43.6756H4.63007C4.73597 43.9933 4.86305 44.2898 5.03249 44.6075C5.18074 44.9041 5.39254 45.1794 5.6467 45.4124C5.87968 45.6454 6.19738 45.8572 6.53625 45.9842C6.87513 46.1537 7.29873 46.2172 7.76469 46.2172C8.35772 46.2172 8.88722 46.1113 9.35317 45.9207C9.81913 45.7301 10.2215 45.4547 10.5604 45.0947C10.8781 44.7558 11.1111 44.3534 11.3017 43.8663C11.4712 43.3791 11.5559 42.8496 11.5559 42.2354H6.57861V39.7362H11.5135ZM22.2026 38.296C22.2026 39.6938 22.1814 40.9011 22.1178 41.9601C22.0331 43.0191 21.9484 43.951 21.8001 44.7134C21.6519 45.4971 21.4824 46.1749 21.2706 46.7043C21.0588 47.2338 20.7835 47.6574 20.487 47.9751C20.1905 48.2928 19.8516 48.5258 19.4704 48.6529C19.0891 48.8012 18.6867 48.8647 18.2207 48.8647C17.8607 48.8647 17.5218 48.8435 17.2465 48.8012C16.95 48.7588 16.6746 48.6741 16.3781 48.5682V45.6454C16.4628 45.7089 16.5687 45.7301 16.6746 45.7724C16.7805 45.7936 16.8864 45.836 16.9923 45.836C17.0982 45.8572 17.1829 45.8783 17.2888 45.8783C17.3735 45.8995 17.4371 45.8995 17.4794 45.8995C17.6701 45.8995 17.8395 45.8572 18.0089 45.8148C18.1572 45.7513 18.3055 45.6454 18.4325 45.4759C18.5596 45.3065 18.6867 45.0523 18.7714 44.7346C18.8773 44.4169 18.9409 43.9722 19.0256 43.4427C19.0891 42.892 19.1315 42.2354 19.1738 41.4517C19.195 40.6469 19.2162 39.715 19.2162 38.5925V33.3822H29.8273V48.5894H26.6503V36.0085H22.1814L22.2026 38.296ZM43.948 36.0085H35.8361V39.3761H43.2914V42.0024H35.8361V45.836H44.308V48.5894H32.7862V33.3822H43.948V36.0085ZM50.1958 39.5667L55.9991 33.3822H60.108L53.9023 39.6091L60.4681 48.5894H56.4439L51.742 41.8542L50.1958 43.4427V48.5894H47.0189V33.3822H50.1958V39.5667ZM73.1692 36.0085H68.5308V48.5894H65.3538V36.0085H60.7154V33.3822H73.1692V36.0085ZM82.0712 33.3822C82.876 33.3822 83.5749 33.5093 84.1892 33.7211C84.7822 33.9329 85.2693 34.2506 85.6717 34.6742C86.053 35.0978 86.3495 35.6061 86.5401 36.2203C86.7307 36.8134 86.8366 37.4911 86.8366 38.2536C86.8366 38.9737 86.7096 39.6303 86.4978 40.2021C86.2648 40.8164 85.9259 41.3247 85.5023 41.7483C85.0787 42.193 84.5492 42.5319 83.935 42.7649C83.2996 42.9979 82.6007 43.125 81.817 43.125H78.3435V48.5894H75.1665V33.3822H82.0712ZM81.3511 40.4987C82.0712 40.4987 82.643 40.3292 83.0454 39.9692C83.4479 39.6303 83.6597 39.0584 83.6597 38.2536C83.6597 37.8512 83.5961 37.5123 83.5114 37.237C83.3843 36.9616 83.2361 36.7075 83.0454 36.538C82.8548 36.3474 82.6007 36.2203 82.3253 36.1356C82.0288 36.0509 81.7111 36.0085 81.3511 36.0085H78.3435V40.4987H81.3511ZM88.4885 40.9858C88.4885 39.8421 88.6368 38.8043 88.9333 37.83C89.251 36.8557 89.6958 36.0085 90.31 35.2884C90.9242 34.5683 91.6655 34.0176 92.5974 33.6152C93.5081 33.2128 94.5883 33.001 95.7955 33.001C96.9181 33.001 97.9347 33.2128 98.8454 33.6152C99.735 34.0176 100.519 34.5683 101.154 35.2884C101.768 36.0085 102.255 36.8557 102.594 37.83C102.933 38.8043 103.103 39.8421 103.103 40.9858C103.103 42.1083 102.933 43.1673 102.594 44.1416C102.255 45.1159 101.768 45.9631 101.154 46.6832C100.519 47.3821 99.735 47.954 98.8454 48.3564C97.9347 48.7588 96.9181 48.9706 95.7955 48.9706C94.5883 48.9706 93.5081 48.7588 92.5974 48.3564C91.6655 47.954 90.9242 47.3821 90.31 46.6832C89.6958 45.9631 89.251 45.1159 88.9333 44.1416C88.6368 43.1673 88.4885 42.1083 88.4885 40.9858ZM95.7955 46.2172C96.4521 46.2172 97.024 46.0901 97.5323 45.836C98.0406 45.5606 98.4854 45.2006 98.8454 44.7346C99.1843 44.2687 99.4597 43.718 99.6503 43.0826C99.8409 42.4472 99.9256 41.7483 99.9256 40.9858C99.9256 40.2233 99.8409 39.5244 99.6503 38.889C99.4597 38.2536 99.1843 37.7029 98.8454 37.237C98.4854 36.771 98.0406 36.4109 97.5323 36.1568C97.024 35.8815 96.4521 35.7544 95.7955 35.7544C95.139 35.7544 94.5671 35.8815 94.0588 36.1568C93.5505 36.4109 93.1269 36.771 92.7668 37.237C92.4068 37.7029 92.1314 38.2536 91.962 38.889C91.7502 39.5244 91.6655 40.2233 91.6655 40.9858C91.6655 41.7483 91.7502 42.4472 91.962 43.0826C92.1314 43.718 92.4068 44.2687 92.7668 44.7346C93.1269 45.2006 93.5505 45.5606 94.0588 45.836C94.5671 46.0901 95.139 46.2172 95.7955 46.2172Z" fill="black"/>
<path d="M108.786 33.3399V39.1643H114.737V33.3399H117.914V48.5894H114.737V41.7906H108.786V48.5894H105.63V33.3399H108.786ZM126.295 42.7225C126.295 43.7604 126.422 44.5228 126.676 45.01C127.057 45.8783 127.904 46.3019 129.196 46.3019C130.488 46.3019 131.314 45.8783 131.695 45.01C131.95 44.5228 132.077 43.7604 132.077 42.7225V33.3399H135.317V42.7225C135.317 44.3322 135.063 45.603 134.555 46.4926C133.623 48.1446 131.822 48.9918 129.196 48.9918C126.549 48.9918 124.748 48.1446 123.816 46.4926C123.308 45.603 123.054 44.3322 123.054 42.7225V33.3399H126.295V42.7225ZM151.894 34.9707C152.36 35.6273 152.593 36.3898 152.593 37.3005C152.593 38.2324 152.36 38.9737 151.894 39.5456C151.64 39.8633 151.238 40.1598 150.729 40.4139C151.513 40.6893 152.085 41.1341 152.508 41.7483C152.89 42.3625 153.08 43.1038 153.08 43.9933C153.08 44.8829 152.868 45.7089 152.402 46.4078C152.106 46.895 151.746 47.2974 151.322 47.6151C150.835 47.9963 150.263 48.2505 149.586 48.3776C148.929 48.5258 148.188 48.5894 147.425 48.5894H140.521V33.3399H147.912C149.797 33.3822 151.111 33.9117 151.894 34.9707ZM147.298 39.3549C147.976 39.3549 148.505 39.2279 148.929 38.9737C149.353 38.7195 149.543 38.2748 149.543 37.6394C149.543 36.9193 149.268 36.4533 148.717 36.2415C148.251 36.0721 147.637 35.9874 146.896 35.9874H143.549V39.3549H147.298ZM147.298 45.9419C147.976 45.9419 148.484 45.8572 148.865 45.6665C149.522 45.3488 149.882 44.7134 149.882 43.7604C149.882 42.9767 149.543 42.426 148.887 42.1295C148.527 41.9812 148.018 41.8965 147.34 41.8753H143.549V45.9419H147.298Z" fill="#0277E4"/>
<path d="M42.5479 22.1405L78.0552 7.81299L83.6617 12.7965L112.94 0.960693L83.6617 18.4029L78.0552 12.7965L42.5479 22.1405Z" fill="#0277E4" stroke="#0277E4" stroke-width="1.24587"/>
</svg>
