<svg width="274" height="91" viewBox="0 0 274 91" fill="none" xmlns="http://www.w3.org/2000/svg">
<g filter="url(#filter0_d_51_65)">
<path d="M21.8118 66.0286C21.8118 65.6216 21.7748 65.1406 21.6638 64.6226C21.5528 64.1416 21.4048 63.6236 21.1828 63.1056C20.9608 62.5876 20.6648 62.1066 20.2948 61.5886C19.9618 61.1076 19.5178 60.7006 19.0368 60.3306C18.5188 59.9236 17.9638 59.6646 17.2608 59.4056C16.5948 59.1836 15.8548 59.0726 15.0408 59.0726C14.1528 59.0726 13.4128 59.2206 12.8208 59.4796C12.1918 59.7756 11.7108 60.1086 11.2668 60.5156C10.8598 60.9226 10.5268 61.3666 10.2678 61.8476C10.0458 62.3286 9.86078 62.7726 9.74978 63.1796H4.19978C4.38478 61.7736 4.82878 60.5526 5.42078 59.4426C6.01278 58.3326 6.78978 57.4076 7.75178 56.6306C8.71378 55.8906 9.86078 55.2986 11.1558 54.8916C12.4508 54.4846 13.8938 54.2626 15.4848 54.2626C16.8538 54.2626 18.0748 54.4476 19.2218 54.7806C20.3318 55.1136 21.3308 55.5946 22.2558 56.2236C23.1438 56.8156 23.9578 57.5556 24.6238 58.4066C25.2898 59.2576 25.8448 60.1826 26.3258 61.2186C26.7698 62.2546 27.1028 63.3276 27.3248 64.4746C27.5468 65.6216 27.6578 66.8426 27.6578 68.0266C27.6578 69.9876 27.4728 71.6896 27.1028 73.1326C26.6958 74.5756 26.1778 75.8336 25.5488 76.8696C24.8828 77.9426 24.1428 78.7936 23.3288 79.4596C22.4778 80.1626 21.5898 80.7176 20.7018 81.0876C19.8138 81.4946 18.8888 81.7536 18.0008 81.9386C17.1498 82.0866 16.2988 82.1606 15.5588 82.1606C13.9308 82.1606 12.4878 81.9386 11.1928 81.4576C9.89778 80.9396 8.78778 80.3106 7.86278 79.4596C6.90078 78.6456 6.12378 77.6466 5.53178 76.5366C4.90278 75.3896 4.49578 74.2056 4.23678 72.9106H9.78678C9.97178 73.4656 10.1938 73.9836 10.4898 74.5386C10.7488 75.0566 11.1188 75.5376 11.5628 75.9446C11.9698 76.3516 12.5248 76.7216 13.1168 76.9436C13.7088 77.2396 14.4488 77.3506 15.2628 77.3506C16.2988 77.3506 17.2238 77.1656 18.0378 76.8326C18.8518 76.4996 19.5548 76.0186 20.1468 75.3896C20.7018 74.7976 21.1088 74.0946 21.4418 73.2436C21.7378 72.3926 21.8858 71.4676 21.8858 70.3946H13.1908V66.0286H21.8118ZM40.4849 63.5126C40.4849 65.9546 40.4479 68.0636 40.3369 69.9136C40.1889 71.7636 40.0409 73.3916 39.7819 74.7236C39.5229 76.0926 39.2269 77.2766 38.8569 78.2016C38.4869 79.1266 38.0059 79.8666 37.4879 80.4216C36.9699 80.9766 36.3779 81.3836 35.7119 81.6056C35.0459 81.8646 34.3429 81.9756 33.5289 81.9756C32.8999 81.9756 32.3079 81.9386 31.8269 81.8646C31.3089 81.7906 30.8279 81.6426 30.3099 81.4576V76.3516C30.4579 76.4626 30.6429 76.4996 30.8279 76.5736C31.0129 76.6106 31.1979 76.6846 31.3829 76.6846C31.5679 76.7216 31.7159 76.7586 31.9009 76.7586C32.0489 76.7956 32.1599 76.7956 32.2339 76.7956C32.5669 76.7956 32.8629 76.7216 33.1589 76.6476C33.4179 76.5366 33.6769 76.3516 33.8989 76.0556C34.1209 75.7596 34.3429 75.3156 34.4909 74.7606C34.6759 74.2056 34.7869 73.4286 34.9349 72.5036C35.0459 71.5416 35.1199 70.3946 35.1939 69.0256C35.2309 67.6196 35.2679 65.9916 35.2679 64.0306V54.9286H53.8049V81.4946H48.2549V59.5166H40.4479L40.4849 63.5126ZM78.4729 59.5166H64.3019V65.3996H77.3259V69.9876H64.3019V76.6846H79.1019V81.4946H58.9739V54.9286H78.4729V59.5166ZM89.3877 65.7326L99.5257 54.9286H106.704L95.8627 65.8066L107.333 81.4946H100.303L92.0887 69.7286L89.3877 72.5036V81.4946H83.8377V54.9286H89.3877V65.7326ZM129.521 59.5166H121.418V81.4946H115.868V59.5166H107.765V54.9286H129.521V59.5166ZM145.072 54.9286C146.478 54.9286 147.699 55.1506 148.772 55.5206C149.808 55.8906 150.659 56.4456 151.362 57.1856C152.028 57.9256 152.546 58.8136 152.879 59.8866C153.212 60.9226 153.397 62.1066 153.397 63.4386C153.397 64.6966 153.175 65.8436 152.805 66.8426C152.398 67.9156 151.806 68.8036 151.066 69.5436C150.326 70.3206 149.401 70.9126 148.328 71.3196C147.218 71.7266 145.997 71.9486 144.628 71.9486H138.56V81.4946H133.01V54.9286H145.072ZM143.814 67.3606C145.072 67.3606 146.071 67.0646 146.774 66.4356C147.477 65.8436 147.847 64.8446 147.847 63.4386C147.847 62.7356 147.736 62.1436 147.588 61.6626C147.366 61.1816 147.107 60.7376 146.774 60.4416C146.441 60.1086 145.997 59.8866 145.516 59.7386C144.998 59.5906 144.443 59.5166 143.814 59.5166H138.56V67.3606H143.814ZM156.283 68.2116C156.283 66.2136 156.542 64.4006 157.06 62.6986C157.615 60.9966 158.392 59.5166 159.465 58.2586C160.538 57.0006 161.833 56.0386 163.461 55.3356C165.052 54.6326 166.939 54.2626 169.048 54.2626C171.009 54.2626 172.785 54.6326 174.376 55.3356C175.93 56.0386 177.299 57.0006 178.409 58.2586C179.482 59.5166 180.333 60.9966 180.925 62.6986C181.517 64.4006 181.813 66.2136 181.813 68.2116C181.813 70.1726 181.517 72.0226 180.925 73.7246C180.333 75.4266 179.482 76.9066 178.409 78.1646C177.299 79.3856 175.93 80.3846 174.376 81.0876C172.785 81.7906 171.009 82.1606 169.048 82.1606C166.939 82.1606 165.052 81.7906 163.461 81.0876C161.833 80.3846 160.538 79.3856 159.465 78.1646C158.392 76.9066 157.615 75.4266 157.06 73.7246C156.542 72.0226 156.283 70.1726 156.283 68.2116ZM169.048 77.3506C170.195 77.3506 171.194 77.1286 172.082 76.6846C172.97 76.2036 173.747 75.5746 174.376 74.7606C174.968 73.9466 175.449 72.9846 175.782 71.8746C176.115 70.7646 176.263 69.5436 176.263 68.2116C176.263 66.8796 176.115 65.6586 175.782 64.5486C175.449 63.4386 174.968 62.4766 174.376 61.6626C173.747 60.8486 172.97 60.2196 172.082 59.7756C171.194 59.2946 170.195 59.0726 169.048 59.0726C167.901 59.0726 166.902 59.2946 166.014 59.7756C165.126 60.2196 164.386 60.8486 163.757 61.6626C163.128 62.4766 162.647 63.4386 162.351 64.5486C161.981 65.6586 161.833 66.8796 161.833 68.2116C161.833 69.5436 161.981 70.7646 162.351 71.8746C162.647 72.9846 163.128 73.9466 163.757 74.7606C164.386 75.5746 165.126 76.2036 166.014 76.6846C166.902 77.1286 167.901 77.3506 169.048 77.3506Z" fill="white"/>
<path d="M191.741 54.8546V65.0296H202.138V54.8546H207.688V81.4946H202.138V69.6176H191.741V81.4946H186.228V54.8546H191.741ZM222.328 71.2456C222.328 73.0586 222.55 74.3906 222.994 75.2416C223.66 76.7586 225.14 77.4986 227.397 77.4986C229.654 77.4986 231.097 76.7586 231.763 75.2416C232.207 74.3906 232.429 73.0586 232.429 71.2456V54.8546H238.09V71.2456C238.09 74.0576 237.646 76.2776 236.758 77.8316C235.13 80.7176 231.985 82.1976 227.397 82.1976C222.772 82.1976 219.627 80.7176 217.999 77.8316C217.111 76.2776 216.667 74.0576 216.667 71.2456V54.8546H222.328V71.2456ZM267.049 57.7036C267.863 58.8506 268.27 60.1826 268.27 61.7736C268.27 63.4016 267.863 64.6966 267.049 65.6956C266.605 66.2506 265.902 66.7686 265.014 67.2126C266.383 67.6936 267.382 68.4706 268.122 69.5436C268.788 70.6166 269.121 71.9116 269.121 73.4656C269.121 75.0196 268.751 76.4626 267.937 77.6836C267.419 78.5346 266.79 79.2376 266.05 79.7926C265.199 80.4586 264.2 80.9026 263.016 81.1246C261.869 81.3836 260.574 81.4946 259.242 81.4946H247.18V54.8546H260.093C263.386 54.9286 265.68 55.8536 267.049 57.7036ZM259.02 65.3626C260.204 65.3626 261.129 65.1406 261.869 64.6966C262.609 64.2526 262.942 63.4756 262.942 62.3656C262.942 61.1076 262.461 60.2936 261.499 59.9236C260.685 59.6276 259.612 59.4796 258.317 59.4796H252.471V65.3626H259.02ZM259.02 76.8696C260.204 76.8696 261.092 76.7216 261.758 76.3886C262.905 75.8336 263.534 74.7236 263.534 73.0586C263.534 71.6896 262.942 70.7276 261.795 70.2096C261.166 69.9506 260.278 69.8026 259.094 69.7656H252.471V76.8696H259.02Z" fill="#0277E4"/>
<path d="M75.2046 38.4949L136.54 13.7457L146.224 22.3542L196.798 1.90918L146.224 32.0386L136.54 22.3542L75.2046 38.4949Z" fill="#0277E4" stroke="#0277E4" stroke-width="2.1521"/>
</g>
<defs>
<filter id="filter0_d_51_65" x="-1.42822" y="0.91156" width="277" height="96.5831" filterUnits="userSpaceOnUse" color-interpolation-filters="sRGB">
<feFlood flood-opacity="0" result="BackgroundImageFix"/>
<feColorMatrix in="SourceAlpha" type="matrix" values="0 0 0 0 0 0 0 0 0 0 0 0 0 0 0 0 0 0 127 0" result="hardAlpha"/>
<feOffset dy="4"/>
<feGaussianBlur stdDeviation="2"/>
<feComposite in2="hardAlpha" operator="out"/>
<feColorMatrix type="matrix" values="0 0 0 0 0 0 0 0 0 0 0 0 0 0 0 0 0 0 0.25 0"/>
<feBlend mode="normal" in2="BackgroundImageFix" result="effect1_dropShadow_51_65"/>
<feBlend mode="normal" in="SourceGraphic" in2="effect1_dropShadow_51_65" result="shape"/>
</filter>
</defs>
</svg>
