<svg width="903" height="314" viewBox="0 0 903 314" fill="none" xmlns="http://www.w3.org/2000/svg">
<path d="M653.666 158.083L654.866 173.238" stroke="white" stroke-width="0.75" stroke-miterlimit="10"/>
<path d="M1.69764 141.761V121.832H4.81696C5.85673 121.196 6.79542 120.301 7.63301 119.146C8.48505 117.99 9.20711 116.337 9.79921 114.185C10.4057 112.033 10.8534 109.152 11.1422 105.542L12.6153 86.7394H43.9817V121.832H48.6607V141.761H37.0499V131.103H13.3084V141.761H1.69764ZM18.5939 121.832H32.3709V96.4439H23.4462L22.753 105.542C22.5509 108.257 22.2404 110.633 21.8216 112.669C21.4172 114.691 20.9334 116.452 20.3702 117.954C19.8215 119.442 19.2294 120.734 18.5939 121.832ZM95.7104 108.921C95.7104 113.86 94.7501 118.026 92.8294 121.42C90.9087 124.799 88.3165 127.363 85.0528 129.11C81.789 130.843 78.1498 131.71 74.1351 131.71C70.0916 131.71 66.4379 130.836 63.1742 129.088C59.9249 127.327 57.3399 124.756 55.4192 121.377C53.513 117.983 52.5599 113.831 52.5599 108.921C52.5599 103.982 53.513 99.8232 55.4192 96.4439C57.3399 93.0502 59.9249 90.4869 63.1742 88.7539C66.4379 87.0066 70.0916 86.1329 74.1351 86.1329C78.1498 86.1329 81.789 87.0066 85.0528 88.7539C88.3165 90.4869 90.9087 93.0502 92.8294 96.4439C94.7501 99.8232 95.7104 103.982 95.7104 108.921ZM83.3198 108.921C83.3198 106.264 82.966 104.026 82.2584 102.206C81.5652 100.372 80.5326 98.9856 79.1607 98.0469C77.8032 97.0938 76.128 96.6172 74.1351 96.6172C72.1422 96.6172 70.4598 97.0938 69.0879 98.0469C67.7304 98.9856 66.6979 100.372 65.9903 102.206C65.2971 104.026 64.9505 106.264 64.9505 108.921C64.9505 111.578 65.2971 113.824 65.9903 115.658C66.6979 117.478 67.7304 118.864 69.0879 119.817C70.4598 120.756 72.1422 121.225 74.1351 121.225C76.128 121.225 77.8032 120.756 79.1607 119.817C80.5326 118.864 81.5652 117.478 82.2584 115.658C82.966 113.824 83.3198 111.578 83.3198 108.921ZM101.283 131.103V86.7394H132.476V96.4439H113.327V101.643H117.833C121.559 101.643 124.815 102.242 127.602 103.441C130.404 104.639 132.577 106.329 134.122 108.51C135.682 110.69 136.462 113.254 136.462 116.2C136.462 119.146 135.682 121.738 134.122 123.976C132.577 126.215 130.404 127.962 127.602 129.218C124.815 130.475 121.559 131.103 117.833 131.103H101.283ZM113.327 121.658H117.833C119.277 121.658 120.49 121.42 121.472 120.944C122.468 120.467 123.219 119.81 123.725 118.972C124.245 118.135 124.505 117.182 124.505 116.113C124.505 114.597 123.934 113.34 122.793 112.344C121.652 111.333 119.999 110.827 117.833 110.827H113.327V121.658ZM140.719 131.103V86.7394H159.868C163.16 86.7394 166.041 87.3892 168.511 88.689C170.98 89.9887 172.901 91.8155 174.273 94.1694C175.645 96.5234 176.331 99.2744 176.331 102.423C176.331 105.6 175.623 108.351 174.208 110.676C172.807 113.001 170.836 114.792 168.294 116.048C165.767 117.304 162.814 117.933 159.434 117.933H147.997V108.575H157.008C158.424 108.575 159.629 108.329 160.626 107.838C161.637 107.333 162.409 106.618 162.944 105.694C163.492 104.769 163.767 103.679 163.767 102.423C163.767 101.152 163.492 100.069 162.944 99.1733C162.409 98.2635 161.637 97.5704 160.626 97.0938C159.629 96.6028 158.424 96.3573 157.008 96.3573H152.763V131.103H140.719ZM223.727 108.921C223.727 113.86 222.767 118.026 220.846 121.42C218.925 124.799 216.333 127.363 213.069 129.11C209.806 130.843 206.166 131.71 202.152 131.71C198.108 131.71 194.455 130.836 191.191 129.088C187.942 127.327 185.357 124.756 183.436 121.377C181.53 117.983 180.576 113.831 180.576 108.921C180.576 103.982 181.53 99.8232 183.436 96.4439C185.357 93.0502 187.942 90.4869 191.191 88.7539C194.455 87.0066 198.108 86.1329 202.152 86.1329C206.166 86.1329 209.806 87.0066 213.069 88.7539C216.333 90.4869 218.925 93.0502 220.846 96.4439C222.767 99.8232 223.727 103.982 223.727 108.921ZM211.336 108.921C211.336 106.264 210.983 104.026 210.275 102.206C209.582 100.372 208.549 98.9856 207.177 98.0469C205.82 97.0938 204.145 96.6172 202.152 96.6172C200.159 96.6172 198.476 97.0938 197.105 98.0469C195.747 98.9856 194.714 100.372 194.007 102.206C193.314 104.026 192.967 106.264 192.967 108.921C192.967 111.578 193.314 113.824 194.007 115.658C194.714 117.478 195.747 118.864 197.105 119.817C198.476 120.756 200.159 121.225 202.152 121.225C204.145 121.225 205.82 120.756 207.177 119.817C208.549 118.864 209.582 117.478 210.275 115.658C210.983 113.824 211.336 111.578 211.336 108.921ZM282.176 86.7394V131.103H270.306V96.2706H255.316V131.103H243.445V86.7394H282.176ZM332.86 108.921C332.86 113.86 331.899 118.026 329.979 121.42C328.058 124.799 325.466 127.363 322.202 129.11C318.938 130.843 315.299 131.71 311.285 131.71C307.241 131.71 303.587 130.836 300.324 129.088C297.074 127.327 294.489 124.756 292.569 121.377C290.662 117.983 289.709 113.831 289.709 108.921C289.709 103.982 290.662 99.8232 292.569 96.4439C294.489 93.0502 297.074 90.4869 300.324 88.7539C303.587 87.0066 307.241 86.1329 311.285 86.1329C315.299 86.1329 318.938 87.0066 322.202 88.7539C325.466 90.4869 328.058 93.0502 329.979 96.4439C331.899 99.8232 332.86 103.982 332.86 108.921ZM320.469 108.921C320.469 106.264 320.115 104.026 319.408 102.206C318.715 100.372 317.682 98.9856 316.31 98.0469C314.953 97.0938 313.277 96.6172 311.285 96.6172C309.292 96.6172 307.609 97.0938 306.237 98.0469C304.88 98.9856 303.847 100.372 303.14 102.206C302.446 104.026 302.1 106.264 302.1 108.921C302.1 111.578 302.446 113.824 303.14 115.658C303.847 117.478 304.88 118.864 306.237 119.817C307.609 120.756 309.292 121.225 311.285 121.225C313.277 121.225 314.953 120.756 316.31 119.817C317.682 118.864 318.715 117.478 319.408 115.658C320.115 113.824 320.469 111.578 320.469 108.921ZM374.272 86.7394V131.103H362.661V86.7394H374.272ZM334.414 131.103L348.018 107.535L334.587 86.7394H349.491L358.416 104.069H378.864L387.356 86.7394H402.173L389.349 107.362L402.519 131.103H387.962L380.337 115.16H356.856L348.884 131.103H334.414ZM418.701 131.103H405.704L420.347 86.7394H436.81L451.454 131.103H438.456L428.752 98.9567H428.405L418.701 131.103ZM416.275 113.6H440.709V122.612H416.275V113.6ZM454.253 131.103V121.832L455.466 121.658C456.939 121.427 458.16 120.792 459.127 119.752C460.109 118.698 460.86 117.03 461.38 114.748C461.914 112.452 462.254 109.326 462.398 105.369L463.091 86.7394H495.238V131.103H483.627V96.0973H474.182L473.489 110.048C473.229 115.218 472.536 119.341 471.41 122.417C470.283 125.493 468.572 127.709 466.276 129.067C463.98 130.424 460.954 131.103 457.199 131.103H454.253ZM543.917 108.921C543.917 113.86 542.957 118.026 541.036 121.42C539.116 124.799 536.524 127.363 533.26 129.11C529.996 130.843 526.357 131.71 522.342 131.71C518.299 131.71 514.645 130.836 511.381 129.088C508.132 127.327 505.547 124.756 503.626 121.377C501.72 117.983 500.767 113.831 500.767 108.921C500.767 103.982 501.72 99.8232 503.626 96.4439C505.547 93.0502 508.132 90.4869 511.381 88.7539C514.645 87.0066 518.299 86.1329 522.342 86.1329C526.357 86.1329 529.996 87.0066 533.26 88.7539C536.524 90.4869 539.116 93.0502 541.036 96.4439C542.957 99.8232 543.917 103.982 543.917 108.921ZM531.527 108.921C531.527 106.264 531.173 104.026 530.465 102.206C529.772 100.372 528.74 98.9856 527.368 98.0469C526.01 97.0938 524.335 96.6172 522.342 96.6172C520.349 96.6172 518.667 97.0938 517.295 98.0469C515.937 98.9856 514.905 100.372 514.197 102.206C513.504 104.026 513.158 106.264 513.158 108.921C513.158 111.578 513.504 113.824 514.197 115.658C514.905 117.478 515.937 118.864 517.295 119.817C518.667 120.756 520.349 121.225 522.342 121.225C524.335 121.225 526.01 120.756 527.368 119.817C528.74 118.864 529.772 117.478 530.465 115.658C531.173 113.824 531.527 111.578 531.527 108.921ZM549.49 131.103V86.7394H568.726C572.105 86.7394 574.943 87.1943 577.239 88.1041C579.55 89.0139 581.29 90.2992 582.459 91.9599C583.644 93.6207 584.236 95.5775 584.236 97.8303C584.236 99.4622 583.875 100.95 583.153 102.293C582.445 103.636 581.449 104.762 580.163 105.672C578.878 106.567 577.376 107.188 575.658 107.535V107.968C577.564 108.04 579.297 108.524 580.856 109.419C582.416 110.3 583.658 111.521 584.582 113.08C585.507 114.626 585.969 116.445 585.969 118.539C585.969 120.965 585.333 123.124 584.062 125.016C582.806 126.908 581.015 128.395 578.69 129.478C576.365 130.561 573.593 131.103 570.372 131.103H549.49ZM561.534 121.485H567.166C569.188 121.485 570.704 121.11 571.715 120.359C572.726 119.593 573.231 118.467 573.231 116.979C573.231 115.94 572.993 115.059 572.517 114.337C572.04 113.615 571.361 113.066 570.48 112.69C569.614 112.315 568.567 112.127 567.339 112.127H561.534V121.485ZM561.534 104.675H566.473C567.527 104.675 568.459 104.509 569.267 104.177C570.076 103.845 570.704 103.369 571.152 102.748C571.614 102.112 571.845 101.34 571.845 100.43C571.845 99.0578 571.354 98.0108 570.372 97.2888C569.39 96.5522 568.148 96.184 566.646 96.184H561.534V104.675ZM601.76 131.103H588.763L603.407 86.7394H619.87L634.513 131.103H621.516L611.811 98.9567H611.465L601.76 131.103ZM599.334 113.6H623.769V122.612H599.334V113.6ZM631.973 96.4439V86.7394H670.531V96.4439H657.188V131.103H645.317V96.4439H631.973ZM682.689 101.643H691.874C695.614 101.643 698.878 102.242 701.665 103.441C704.467 104.639 706.64 106.329 708.185 108.51C709.745 110.69 710.518 113.254 710.503 116.2C710.518 119.146 709.745 121.738 708.185 123.976C706.64 126.215 704.467 127.962 701.665 129.218C698.878 130.475 695.614 131.103 691.874 131.103H675.324V86.7394H687.368V121.658H691.874C693.332 121.658 694.553 121.42 695.535 120.944C696.531 120.467 697.282 119.81 697.788 118.972C698.307 118.135 698.56 117.182 698.546 116.113C698.56 114.597 697.997 113.34 696.856 112.344C695.715 111.333 694.055 110.827 691.874 110.827H682.689V101.643Z" fill="black"/>
<path d="M117.037 202.587L191.719 172.48L203.511 182.952L267.093 167.079L203.511 194.733L191.719 182.952L117.037 202.587Z" fill="black" stroke="black" stroke-width="2.61863"/>
<path d="M13.8337 203.939V159.576H25.8778V176.905H41.821V159.576H53.865V203.939H41.821V186.61H25.8778V203.939H13.8337ZM71.1079 203.939H58.1107L72.7542 159.576H89.2173L103.861 203.939H90.8636L81.159 171.793H80.8124L71.1079 203.939ZM68.6818 186.437H93.1164V195.448H68.6818V186.437Z" fill="black"/>
<path d="M307.585 177.512V186.87H287.916V177.512H307.585ZM272.926 188.949H284.797C284.739 191.116 285.353 192.711 286.638 193.737C287.938 194.762 289.721 195.275 291.989 195.275C294.097 195.275 295.7 194.863 296.797 194.04C297.909 193.202 298.668 191.895 299.072 190.119C299.491 188.328 299.7 186.003 299.7 183.144V180.458C299.7 177.656 299.462 175.367 298.985 173.591C298.509 171.815 297.729 170.508 296.646 169.67C295.563 168.833 294.097 168.414 292.248 168.414C290.227 168.414 288.674 168.681 287.591 169.215C286.508 169.75 285.764 170.515 285.36 171.512C284.956 172.508 284.739 173.699 284.71 175.086H272.839C273.128 172.111 274.016 169.403 275.504 166.963C276.991 164.522 279.121 162.58 281.894 161.135C284.667 159.691 288.118 158.969 292.248 158.969C296.119 158.969 299.484 159.843 302.343 161.59C305.217 163.323 307.441 165.807 309.015 169.042C310.603 172.262 311.398 176.097 311.398 180.545V183.144C311.398 187.592 310.632 191.419 309.101 194.625C307.571 197.816 305.361 200.271 302.473 201.99C299.585 203.694 296.09 204.546 291.989 204.546C288.263 204.546 284.992 203.911 282.176 202.64C279.374 201.354 277.165 199.549 275.547 197.224C273.944 194.885 273.07 192.126 272.926 188.949ZM315.443 203.939V194.668L316.656 194.495C318.129 194.264 319.349 193.628 320.317 192.589C321.299 191.534 322.05 189.866 322.57 187.585C323.104 185.289 323.443 182.162 323.588 178.205L324.281 159.576H356.427V203.939H344.817V168.934H335.372L334.679 182.884C334.419 188.054 333.726 192.177 332.599 195.253C331.473 198.329 329.762 200.546 327.465 201.903C325.169 203.261 322.144 203.939 318.389 203.939H315.443ZM362.13 203.939V159.576H394.103V169.28H374.174V176.905H392.457V186.61H374.174V194.235H394.016V203.939H362.13ZM427.414 203.939L413.81 186.003H412.12V203.939H400.076V159.576H412.12V176.299H413.68L426.417 159.576H441.58L424.684 180.891L442.534 203.939H427.414ZM444.554 169.28V159.576H483.112V169.28H469.768V203.939H457.897V169.28H444.554ZM487.645 203.939V159.576H506.794C510.086 159.576 512.967 160.226 515.437 161.525C517.906 162.825 519.827 164.652 521.199 167.006C522.571 169.36 523.257 172.111 523.257 175.259C523.257 178.436 522.549 181.187 521.134 183.512C519.733 185.837 517.762 187.628 515.22 188.884C512.693 190.141 509.74 190.769 506.36 190.769H494.923V181.411H503.934C505.35 181.411 506.555 181.166 507.552 180.675C508.563 180.169 509.335 179.454 509.87 178.53C510.418 177.606 510.693 176.515 510.693 175.259C510.693 173.988 510.418 172.905 509.87 172.01C509.335 171.1 508.563 170.407 507.552 169.93C506.555 169.439 505.35 169.194 503.934 169.194H499.689V203.939H487.645ZM570.653 181.758C570.653 186.697 569.693 190.863 567.772 194.257C565.851 197.636 563.259 200.199 559.995 201.947C556.732 203.68 553.092 204.546 549.078 204.546C545.034 204.546 541.381 203.672 538.117 201.925C534.868 200.163 532.283 197.593 530.362 194.213C528.456 190.82 527.502 186.668 527.502 181.758C527.502 176.819 528.456 172.66 530.362 169.28C532.283 165.887 534.868 163.323 538.117 161.59C541.381 159.843 545.034 158.969 549.078 158.969C553.092 158.969 556.732 159.843 559.995 161.59C563.259 163.323 565.851 165.887 567.772 169.28C569.693 172.66 570.653 176.819 570.653 181.758ZM558.262 181.758C558.262 179.1 557.909 176.862 557.201 175.042C556.508 173.208 555.475 171.822 554.103 170.883C552.746 169.93 551.071 169.454 549.078 169.454C547.085 169.454 545.402 169.93 544.031 170.883C542.673 171.822 541.641 173.208 540.933 175.042C540.24 176.862 539.893 179.1 539.893 181.758C539.893 184.415 540.24 186.66 540.933 188.494C541.641 190.314 542.673 191.7 544.031 192.654C545.402 193.592 547.085 194.062 549.078 194.062C551.071 194.062 552.746 193.592 554.103 192.654C555.475 191.7 556.508 190.314 557.201 188.494C557.909 186.66 558.262 184.415 558.262 181.758Z" fill="black"/>
<path d="M576.911 203.94V159.576H588.955V176.906H604.898V159.576H616.942V203.94H604.898V186.61H588.955V203.94H576.911ZM648.915 159.576H660.959V187.997C660.959 191.376 660.15 194.3 658.533 196.77C656.93 199.225 654.692 201.124 651.818 202.467C648.944 203.795 645.608 204.46 641.81 204.46C637.983 204.46 634.633 203.795 631.759 202.467C628.885 201.124 626.647 199.225 625.044 196.77C623.455 194.3 622.661 191.376 622.661 187.997V159.576H634.705V186.957C634.705 188.329 635.008 189.556 635.615 190.639C636.221 191.708 637.059 192.546 638.128 193.152C639.211 193.759 640.438 194.062 641.81 194.062C643.196 194.062 644.424 193.759 645.493 193.152C646.561 192.546 647.399 191.708 648.005 190.639C648.612 189.556 648.915 188.329 648.915 186.957V159.576ZM666.683 203.94V159.576H685.919C689.298 159.576 692.136 160.031 694.432 160.941C696.743 161.851 698.483 163.136 699.653 164.797C700.837 166.457 701.429 168.414 701.429 170.667C701.429 172.299 701.068 173.786 700.346 175.129C699.638 176.472 698.642 177.599 697.357 178.509C696.071 179.404 694.569 180.025 692.851 180.372V180.805C694.757 180.877 696.49 181.361 698.05 182.256C699.609 183.137 700.851 184.357 701.776 185.917C702.7 187.462 703.162 189.282 703.162 191.376C703.162 193.802 702.527 195.961 701.256 197.853C699.999 199.745 698.209 201.232 695.884 202.315C693.559 203.398 690.786 203.94 687.565 203.94H666.683ZM678.727 194.322H684.359C686.381 194.322 687.898 193.946 688.908 193.195C689.919 192.43 690.425 191.304 690.425 189.816C690.425 188.776 690.187 187.895 689.71 187.173C689.233 186.451 688.555 185.903 687.674 185.527C686.807 185.152 685.76 184.964 684.533 184.964H678.727V194.322ZM678.727 177.512H683.666C684.721 177.512 685.652 177.346 686.461 177.014C687.269 176.682 687.898 176.205 688.345 175.584C688.807 174.949 689.038 174.176 689.038 173.266C689.038 171.894 688.547 170.847 687.565 170.125C686.583 169.389 685.341 169.021 683.84 169.021H678.727V177.512Z" fill="#0277E4"/>
<path d="M857.548 212.351L817.12 212.073" stroke="#121649" stroke-width="0.75" stroke-miterlimit="10"/>
<path d="M832.43 44.9442C832.43 46.7924 830.729 48.3633 828.727 48.3633C826.726 48.3633 825.025 46.7924 825.025 44.9442C825.025 43.0961 826.726 41.5251 828.727 41.5251C830.729 41.5251 832.43 43.0961 832.43 44.9442Z" stroke="#ADBBF9" stroke-miterlimit="10" stroke-linejoin="round"/>
<path d="M796.505 31.7295C797.887 31.7295 799.007 30.6952 799.007 29.4193C799.007 28.1434 797.887 27.1091 796.505 27.1091C795.123 27.1091 794.003 28.1434 794.003 29.4193C794.003 30.6952 795.123 31.7295 796.505 31.7295Z" stroke="#ADBBF9" stroke-miterlimit="10" stroke-linejoin="round"/>
<path d="M892.471 141.048C892.471 142.341 891.371 143.358 889.97 143.358C888.569 143.358 887.468 142.341 887.468 141.048C887.468 139.754 888.569 138.738 889.97 138.738C891.371 138.738 892.471 139.754 892.471 141.048Z" stroke="#ADBBF9" stroke-miterlimit="10" stroke-linejoin="round"/>
<path d="M842.837 102.884H839.435C838.834 102.884 838.334 102.422 838.334 101.867V98.7252C838.334 98.1708 838.834 97.7087 839.435 97.7087H842.837C843.438 97.7087 843.938 98.1708 843.938 98.7252V101.867C843.938 102.422 843.438 102.884 842.837 102.884Z" fill="#E4E9F9"/>
<path d="M766.284 66.1054C766.284 65.6434 766.384 65.1813 766.384 64.7193C766.985 60.561 770.487 61.023 772.589 61.1154C774.79 61.2078 777.492 61.3002 778.493 59.3597C778.993 58.528 778.893 57.5115 779.193 56.5875C779.894 54.5545 782.095 53.3532 784.197 53.3532C786.298 53.3532 788.3 54.2773 790.001 55.4786C795.605 59.3597 797.206 49.1025 799.808 46.1454C802.81 42.7263 808.413 40.8782 812.216 43.2808C816.019 45.7758 818.22 50.1189 819.221 54.5545C819.521 56.033 819.621 57.7888 820.922 58.528C824.625 60.8382 829.328 56.3102 833.831 59.8217C835.432 61.023 835.732 63.9801 835.532 65.9206H766.284V66.1054Z" fill="white" stroke="#ADBBF9" stroke-miterlimit="10" stroke-linejoin="round"/>
<path d="M752.175 277.164C742.168 171.45 766.485 132.731 793.103 131.068C805.712 130.236 842.637 136.982 798.006 277.164" fill="white"/>
<path d="M752.375 277.164C749.873 242.326 747.371 206.195 757.078 172.004C761.281 157.219 769.186 138.091 786.498 132.639C793.303 130.513 801.008 130.883 806.812 135.134C817.019 142.619 818.62 157.311 819.021 168.4C819.421 180.875 818.02 193.35 815.919 205.64C812.816 224.122 808.113 242.419 802.809 260.438C801.208 265.983 799.507 271.527 797.806 277.071C797.706 277.441 798.306 277.533 798.406 277.256C805.211 257.204 810.715 236.597 814.818 215.99C817.52 202.406 819.621 188.637 819.821 174.776C819.921 166.367 819.421 157.681 816.919 149.549C815.418 144.744 813.117 140.031 809.314 136.335C804.411 131.715 797.606 129.959 790.701 130.975C773.99 133.378 764.583 149.18 759.379 162.579C754.576 175.146 752.275 188.453 750.874 201.667C748.872 220.98 749.172 240.57 750.373 259.884C750.774 265.705 751.174 271.435 751.874 277.256C752.074 277.349 752.375 277.349 752.375 277.164Z" fill="#ADBBF9"/>
<path d="M798.307 131.253L774.79 277.072" stroke="#ADBBF9" stroke-miterlimit="10" stroke-linejoin="round"/>
<path d="M830.829 277.164C838.935 214.327 866.454 178.103 891.271 187.898C911.585 195.938 901.077 230.96 869.456 277.072" fill="white"/>
<path d="M831.029 277.164C834.131 258.683 837.633 240.293 845.439 222.921C850.542 211.37 857.547 198.895 868.755 191.41C876.36 186.327 887.068 184.479 894.973 190.301C904.079 197.139 901.578 210.631 899.076 219.687C893.272 240.293 880.963 258.867 869.255 276.979C869.055 277.256 869.556 277.534 869.756 277.256C876.56 267.831 882.564 257.851 888.068 247.686C892.271 239.739 896.074 231.607 898.876 223.106C901.878 213.68 905.28 200.189 897.775 191.78C891.771 185.034 880.863 184.572 872.858 188.268C861.45 193.628 853.845 204.901 848.441 215.159C843.838 223.845 840.435 233.086 837.734 242.419C834.431 253.692 831.93 265.428 830.729 277.072C830.629 277.349 831.029 277.441 831.029 277.164Z" fill="#ADBBF9"/>
<path d="M891.271 187.898L850.743 277.071" stroke="#ADBBF9" stroke-miterlimit="10" stroke-linejoin="round"/>
<path d="M833.931 277.256C849.942 245.838 882.265 174.222 857.948 148.81C844.539 134.856 820.122 151.952 807.113 182.723C794.804 211.924 785.598 242.049 777.893 276.794" fill="white"/>
<path d="M834.131 277.441C842.537 261.178 850.042 244.359 856.146 227.264C862.451 209.614 868.155 190.394 866.854 171.635C866.053 160.084 860.149 141.418 843.838 143.82C835.032 145.114 827.627 151.49 822.123 157.681C814.117 166.645 808.914 177.179 804.511 187.991C792.703 216.822 784.097 246.67 777.492 276.887C777.392 277.349 778.193 277.626 778.293 277.072C783.997 251.29 791.102 225.693 800.408 200.743C804.711 189.1 809.114 177.272 816.119 166.83C821.422 158.883 828.327 150.843 837.534 146.592C844.639 143.266 852.444 143.728 857.948 149.457C863.051 154.909 865.153 162.209 865.953 169.232C867.955 187.067 862.751 205.548 857.147 222.459C850.843 241.218 842.637 259.514 833.631 277.257C833.431 277.441 834.031 277.719 834.131 277.441Z" fill="#ADBBF9"/>
<path d="M850.743 144.374L807.813 277.349" stroke="#ADBBF9" stroke-miterlimit="10" stroke-linejoin="round"/>
<path d="M833.931 250.273L834.832 277.626L833.831 286.22L798.507 286.035C797.606 286.035 796.906 285.388 796.906 284.557C796.906 283.91 797.306 283.355 797.906 283.17L813.717 276.517L811.316 248.056" fill="#FFCBBD"/>
<path d="M795.404 285.665C795.805 284.556 796.505 283.355 797.106 283.078L813.817 276.424C823.023 279.843 834.932 277.256 834.932 277.256L835.832 288.899C835.832 289.269 835.532 289.639 835.032 289.546L795.504 289.361C794.804 289.454 795.304 285.757 795.404 285.665Z" fill="#4E4E4E"/>
<path d="M810.215 277.164C811.115 278.273 811.916 279.567 812.616 280.861" stroke="#121649" stroke-width="0.75" stroke-miterlimit="10"/>
<path d="M808.113 278.272C809.114 279.474 809.514 280.214 810.014 281.415" stroke="#121649" stroke-width="0.75" stroke-miterlimit="10"/>
<path d="M806.312 279.197C807.012 280.028 807.613 281.138 808.113 282.062" stroke="#121649" stroke-width="0.75" stroke-miterlimit="10"/>
<path d="M835.332 281.507C835.332 281.507 825.925 281.599 825.125 287.051" stroke="#121649" stroke-width="0.75" stroke-miterlimit="10"/>
<path d="M800.508 281.784C800.508 281.784 803.21 285.296 803.71 286.959" stroke="#121649" stroke-width="0.75" stroke-miterlimit="10"/>
<path d="M829.828 142.711C829.828 142.711 834.131 149.364 835.332 154.354C837.334 162.301 835.332 170.433 835.332 170.433L835.232 266.075H809.014C809.014 266.075 803.21 155.833 805.812 141.51" fill="#0277E4"/>
<path d="M813.017 266.075C813.017 266.075 807.213 155.833 809.815 141.51" stroke="black" stroke-width="0.75" stroke-miterlimit="10"/>
<path d="M804.911 239.462L816.819 264.504L819.421 272.821L786.598 284.834C785.798 285.111 784.797 284.741 784.497 284.002C784.297 283.448 784.397 282.801 784.897 282.339L796.805 270.695L783.096 245.099" fill="#FFCBBD"/>
<path d="M783.496 285.665C783.396 284.556 783.596 283.17 784.097 282.708L796.905 270.788C806.812 270.788 816.819 264.227 816.819 264.227L822.323 274.669C822.523 275.038 822.323 275.408 821.923 275.593L785.197 288.992C784.497 289.269 783.496 285.665 783.496 285.665Z" fill="#797979"/>
<path d="M793.803 272.636C795.104 273.375 796.405 274.207 797.506 275.224" stroke="#121649" stroke-width="0.75" stroke-miterlimit="10"/>
<path d="M792.302 274.392C793.703 275.223 794.304 275.778 795.304 276.61" stroke="#121649" stroke-width="0.75" stroke-miterlimit="10"/>
<path d="M791.001 275.778C791.902 276.332 793.003 277.164 793.803 277.811" stroke="#121649" stroke-width="0.75" stroke-miterlimit="10"/>
<path d="M821.422 273.098L783.797 286.774" stroke="#121649" stroke-width="0.75" stroke-miterlimit="10"/>
<path d="M818.821 268.016C818.821 268.016 810.115 271.342 811.516 276.61" stroke="#121649" stroke-width="0.75" stroke-miterlimit="10"/>
<path d="M786.698 280.213C786.698 280.213 790.601 282.616 791.802 283.91" stroke="#121649" stroke-width="0.75" stroke-miterlimit="10"/>
<path d="M784.597 158.328C771.088 188.915 770.888 192.149 768.686 207.119C766.385 222.459 791.302 267.554 791.302 267.554L815.218 257.758C815.218 257.758 799.307 216.452 800.408 209.429C802.309 196.4 818.621 174.13 818.621 174.13C818.621 174.13 826.326 168.493 828.027 160.915C829.728 153.43 826.026 145.483 826.026 145.483" fill="#0277E4"/>
<path d="M809.214 161.933C809.514 161.84 819.921 158.79 819.921 158.79" stroke="black" stroke-width="0.75" stroke-miterlimit="10"/>
<path d="M832.13 156.018L835.532 155.001" stroke="black" stroke-width="0.75" stroke-miterlimit="10"/>
<path d="M792.602 157.404C792.602 157.404 775.891 190.855 773.689 206.195C771.388 221.535 795.705 265.336 795.705 265.336" stroke="black" stroke-width="0.75" stroke-miterlimit="10"/>
<path d="M805.912 194.644C811.115 184.11 818.521 174.037 818.521 174.037C818.521 174.037 826.226 168.4 827.927 160.823" stroke="black" stroke-width="0.75" stroke-miterlimit="10"/>
<path d="M782.295 82.5537L789.2 93.5502C789.2 93.5502 785.097 101.774 773.99 97.8934L771.188 92.0717L782.295 82.5537Z" fill="#FFCBBD"/>
<path d="M764.083 75.161C764.083 75.161 760.68 89.8538 766.585 92.4412C769.687 93.8273 778.193 92.9956 780.194 89.9462C781.695 87.7284 781.095 77.1016 779.293 75.9003C772.289 70.9103 764.083 75.161 764.083 75.161Z" fill="#FFCBBD"/>
<path d="M778.993 70.8182C776.391 66.6599 771.188 67.4916 762.682 71.9271C761.581 72.4816 759.079 72.7588 759.079 73.9601C759.079 75.531 760.28 78.2108 762.281 78.6729C763.582 79.0425 764.283 78.9501 765.684 78.5805C767.485 78.2108 769.787 78.8577 769.787 80.7982C769.787 81.2603 769.586 82.1843 770.087 82.3692C770.387 82.4616 770.987 82.3692 771.288 82.3692C772.088 82.3692 772.488 83.2932 772.388 84.0325C772.288 84.7718 772.789 85.3262 772.689 86.0655C772.488 87.8212 774.79 89.6693 776.691 89.8542C778.393 89.9466 783.196 89.2073 785.497 86.3427C787.499 83.8477 787.199 79.5969 783.896 73.3132C782.696 70.9106 779.894 70.1714 778.993 70.8182Z" fill="#212237"/>
<path d="M769.586 83.1083C770.087 80.7981 771.488 80.5209 772.589 81.1677C774.09 81.9994 773.789 85.3261 773.189 86.1577C772.088 87.8211 770.687 88.2831 769.887 87.1742" fill="#FFCBBD"/>
<path d="M771.688 92.9968C773.489 91.6104 773.189 89.1147 773.189 89.1147" stroke="#E88872" stroke-width="0.5" stroke-miterlimit="10" stroke-linejoin="round"/>
<path d="M764.583 82.1842C764.383 82.6463 764.283 83.4782 764.683 83.7555C764.783 83.8479 764.983 83.8479 765.083 83.7555C766.083 83.2009 765.083 81.075 764.583 82.1842Z" fill="#28364C"/>
<path d="M763.883 80.5207C764.583 80.4283 765.784 80.5207 766.485 80.9829" stroke="#28364C" stroke-width="0.75" stroke-miterlimit="10"/>
<path d="M766.785 87.5438L764.183 87.4514C764.183 87.4514 764.083 90.3168 765.284 90.4092C766.685 90.5016 766.785 87.5438 766.785 87.5438Z" fill="white"/>
<path d="M787.599 91.0552C787.599 91.0552 793.603 89.6691 802.009 91.8869C809.114 93.8275 818.22 98.7251 825.025 105.471C836.833 117.114 831.429 145.945 831.429 145.945L816.019 145.391C816.019 145.391 818.42 126.817 810.415 119.424C802.309 111.939 791.001 110.276 791.001 110.276" fill="black"/>
<path d="M722.354 131.622C717.551 132.823 702.941 134.302 702.741 135.226C702.54 136.15 707.644 135.688 707.344 136.427C707.044 137.167 699.138 138.368 699.138 139.292C699.138 140.586 707.144 139.015 707.144 139.015C707.144 139.015 703.841 139.569 704.242 140.678C704.542 141.51 705.843 141.694 708.545 141.51C707.144 141.787 706.543 142.434 706.843 143.265C707.144 144.097 708.545 144.005 710.046 143.82C709.045 144.005 708.244 144.652 708.945 145.206C709.845 145.945 715.75 145.576 726.357 143.912" fill="#FFCBBD"/>
<path d="M772.388 94.7514C772.388 94.7514 776.491 96.4147 781.094 94.7514C785.698 93.088 787.599 91.0551 787.599 91.0551C787.599 91.0551 797.906 90.4082 810.515 102.052C823.224 113.787 833.13 147.054 833.13 147.054L780.994 163.225C780.994 163.225 772.088 134.117 768.586 120.81C765.083 107.504 772.388 94.7514 772.388 94.7514Z" fill="black"/>
<path d="M809.814 99.0022C820.222 110.276 833.131 147.054 833.131 147.054" stroke="white" stroke-width="0.75" stroke-miterlimit="10"/>
<path d="M772.388 94.7517C765.484 97.1543 759.68 103.346 755.977 109.629C750.073 119.979 746.471 127.556 746.471 127.556L716.55 131.715L718.051 146.407C718.051 146.407 738.365 145.853 754.476 143.635C765.984 142.064 774.89 120.071 774.89 120.071" fill="black"/>
<path d="M770.387 95.5833C770.387 95.5833 773.689 99.6492 781.595 96.877C789.5 94.1047 789.8 90.7781 789.8 90.7781" stroke="white" stroke-width="0.75" stroke-miterlimit="10"/>
<path d="M771.088 127.649L774.39 121.272" stroke="white" stroke-width="0.75" stroke-miterlimit="10"/>
<path d="M780.094 160.084L832.13 144.189" stroke="white" stroke-width="0.75" stroke-miterlimit="10"/>
<path d="M779.634 5.99855H776.232C775.631 5.99855 775.131 5.53651 775.131 4.98207V1.84021C775.131 1.28577 775.631 0.82373 776.232 0.82373H779.634C780.234 0.82373 780.735 1.28577 780.735 1.84021V4.98207C780.735 5.53651 780.234 5.99855 779.634 5.99855Z" fill="#E4E9F9"/>
<path d="M607.875 303.213C607.875 303.213 615.18 308.203 612.478 312.824" stroke="white" stroke-width="0.75" stroke-miterlimit="10"/>
<path d="M619.783 204.707C619.783 204.707 629.39 205.261 633.092 198.146" stroke="white" stroke-width="0.75" stroke-miterlimit="10"/>
</svg>
