<svg width="23" height="23" viewBox="0 0 23 23" fill="none" xmlns="http://www.w3.org/2000/svg">
<path d="M4.58125 17.1982C5.5375 16.4669 6.60625 15.8902 7.7875 15.4679C8.96875 15.0457 10.2063 14.8349 11.5 14.8357C12.7937 14.8357 14.0312 15.0468 15.2125 15.4691C16.3937 15.8913 17.4625 16.4677 18.4187 17.1982C19.075 16.4294 19.5861 15.5576 19.9521 14.5826C20.3181 13.6076 20.5007 12.5669 20.5 11.4607C20.5 8.96694 19.6236 6.84332 17.8709 5.08982C16.1181 3.33632 13.9945 2.45994 11.5 2.46069C9.00625 2.46069 6.88263 3.33707 5.12912 5.08982C3.37562 6.84257 2.49925 8.96619 2.5 11.4607C2.5 12.5669 2.683 13.6076 3.049 14.5826C3.415 15.5576 3.92575 16.4294 4.58125 17.1982ZM11.5 12.5857C10.3938 12.5857 9.46075 12.2062 8.701 11.4472C7.94125 10.6882 7.56175 9.75519 7.5625 8.64819C7.5625 7.54194 7.942 6.60894 8.701 5.84919C9.46 5.08944 10.393 4.70994 11.5 4.71069C12.6062 4.71069 13.5393 5.09019 14.299 5.84919C15.0588 6.60819 15.4382 7.54119 15.4375 8.64819C15.4375 9.75444 15.058 10.6874 14.299 11.4472C13.54 12.2069 12.607 12.5864 11.5 12.5857ZM11.5 22.7107C9.94375 22.7107 8.48125 22.4152 7.1125 21.8242C5.74375 21.2332 4.55313 20.4318 3.54063 19.4201C2.52813 18.4076 1.72675 17.2169 1.1365 15.8482C0.54625 14.4794 0.25075 13.0169 0.25 11.4607C0.25 9.90444 0.5455 8.44194 1.1365 7.07319C1.7275 5.70444 2.52888 4.51382 3.54063 3.50132C4.55313 2.48882 5.74375 1.68744 7.1125 1.09719C8.48125 0.506943 9.94375 0.211443 11.5 0.210693C13.0562 0.210693 14.5187 0.506193 15.8875 1.09719C17.2563 1.68819 18.4469 2.48957 19.4594 3.50132C20.4719 4.51382 21.2736 5.70444 21.8646 7.07319C22.4556 8.44194 22.7507 9.90444 22.75 11.4607C22.75 13.0169 22.4545 14.4794 21.8635 15.8482C21.2725 17.2169 20.4711 18.4076 19.4594 19.4201C18.4469 20.4326 17.2563 21.2343 15.8875 21.8253C14.5187 22.4163 13.0562 22.7114 11.5 22.7107ZM11.5 20.4607C12.4937 20.4607 13.4312 20.3152 14.3125 20.0242C15.1938 19.7332 16 19.3162 16.7312 18.7732C16 18.2294 15.1938 17.8121 14.3125 17.5211C13.4312 17.2301 12.4937 17.0849 11.5 17.0857C10.5063 17.0857 9.56875 17.2312 8.6875 17.5222C7.80625 17.8132 7 18.2302 6.26875 18.7732C7 19.3169 7.80625 19.7343 8.6875 20.0253C9.56875 20.3163 10.5063 20.4614 11.5 20.4607ZM11.5 10.3357C11.9875 10.3357 12.3906 10.1763 12.7094 9.85757C13.0281 9.53882 13.1875 9.13569 13.1875 8.64819C13.1875 8.16069 13.0281 7.75757 12.7094 7.43882C12.3906 7.12007 11.9875 6.96069 11.5 6.96069C11.0125 6.96069 10.6094 7.12007 10.2906 7.43882C9.97188 7.75757 9.8125 8.16069 9.8125 8.64819C9.8125 9.13569 9.97188 9.53882 10.2906 9.85757C10.6094 10.1763 11.0125 10.3357 11.5 10.3357Z" fill="#0277E4"/>
</svg>
