<svg width="24" height="25" viewBox="0 0 24 25" fill="none" xmlns="http://www.w3.org/2000/svg">
<path d="M10.7651 20.6759C12.9591 20.6754 15.0899 19.9409 16.8183 18.5893L22.2522 24.0232L24 22.2754L18.5661 16.8415C19.9184 15.113 20.6534 12.9817 20.6539 10.787C20.6539 5.33457 16.2175 0.898193 10.7651 0.898193C5.3126 0.898193 0.876221 5.33457 0.876221 10.787C0.876221 16.2395 5.3126 20.6759 10.7651 20.6759ZM10.7651 3.3704C14.8553 3.3704 18.1817 6.69676 18.1817 10.787C18.1817 14.8773 14.8553 18.2037 10.7651 18.2037C6.67479 18.2037 3.34843 14.8773 3.34843 10.787C3.34843 6.69676 6.67479 3.3704 10.7651 3.3704Z" fill="#0277E4"/>
</svg>
