<svg width="24" height="23" viewBox="0 0 24 23" fill="none" xmlns="http://www.w3.org/2000/svg">
<path d="M6.875 22.7107C6.25625 22.7107 5.72638 22.4902 5.28537 22.0492C4.84437 21.6082 4.62425 21.0787 4.625 20.4607C4.625 19.8419 4.8455 19.3121 5.2865 18.8711C5.7275 18.4301 6.257 18.2099 6.875 18.2107C7.49375 18.2107 8.02362 18.4312 8.46463 18.8722C8.90563 19.3132 9.12575 19.8427 9.125 20.4607C9.125 21.0794 8.9045 21.6093 8.4635 22.0503C8.0225 22.4913 7.493 22.7114 6.875 22.7107ZM18.125 22.7107C17.5063 22.7107 16.9764 22.4902 16.5354 22.0492C16.0944 21.6082 15.8743 21.0787 15.875 20.4607C15.875 19.8419 16.0955 19.3121 16.5365 18.8711C16.9775 18.4301 17.507 18.2099 18.125 18.2107C18.7437 18.2107 19.2736 18.4312 19.7146 18.8722C20.1556 19.3132 20.3757 19.8427 20.375 20.4607C20.375 21.0794 20.1545 21.6093 19.7135 22.0503C19.2725 22.4913 18.743 22.7114 18.125 22.7107ZM5.91875 4.71069L8.61875 10.3357H16.4937L19.5875 4.71069H5.91875ZM3.07812 17.0857L6.425 11.0107L2.375 2.46069H0.125V0.210693H3.78125L4.85 2.46069H23.4125L17.8156 12.5857H8.1125L6.875 14.8357H20.375V17.0857H3.07812Z" fill="#0277E4"/>
</svg>
