<svg width="131" height="117" viewBox="0 0 131 117" fill="none" xmlns="http://www.w3.org/2000/svg">
<path d="M97.7506 116.636C94.1985 116.636 91.1567 115.371 88.625 112.839C86.0933 110.307 84.8296 107.268 84.834 103.72V97.2615H71.9173C68.3652 97.2615 65.3233 95.9957 62.7917 93.464C60.26 90.9323 58.9963 87.8926 59.0006 84.3448V32.6782H46.084V39.1365C46.084 42.6886 44.8181 45.7304 42.2865 48.2621C39.7548 50.7938 36.7151 52.0575 33.1673 52.0532H13.7923C10.2402 52.0532 7.19833 50.7873 4.66666 48.2556C2.135 45.724 0.871316 42.6843 0.875621 39.1365V13.3032C0.875621 9.75107 2.14145 6.70919 4.67312 4.17753C7.20479 1.64586 10.2445 0.38218 13.7923 0.386486H33.1673C36.7194 0.386486 39.7612 1.65232 42.2929 4.18399C44.8246 6.71565 46.0883 9.75537 46.084 13.3032V19.7615H84.834V13.3032C84.834 9.75107 86.0998 6.70919 88.6315 4.17753C91.1631 1.64586 94.2028 0.38218 97.7506 0.386486H117.126C120.678 0.386486 123.72 1.65232 126.251 4.18399C128.783 6.71565 130.047 9.75537 130.042 13.3032V39.1365C130.042 42.6886 128.776 45.7304 126.245 48.2621C123.713 50.7938 120.673 52.0575 117.126 52.0532H97.7506C94.1985 52.0532 91.1567 50.7873 88.625 48.2556C86.0933 45.724 84.8296 42.6843 84.834 39.1365V32.6782H71.9173V84.3448H84.834V77.8865C84.834 74.3344 86.0998 71.2925 88.6315 68.7609C91.1631 66.2292 94.2028 64.9655 97.7506 64.9698H117.126C120.678 64.9698 123.72 66.2356 126.251 68.7673C128.783 71.299 130.047 74.3387 130.042 77.8865V103.72C130.042 107.272 128.776 110.314 126.245 112.845C123.713 115.377 120.673 116.641 117.126 116.636H97.7506Z" fill="white"/>
</svg>
