<svg width="127" height="127" viewBox="0 0 127 127" fill="none" xmlns="http://www.w3.org/2000/svg">
<path d="M38.1199 126.845H88.7869C95.7726 126.845 101.454 121.164 101.454 114.179V12.8446C101.454 5.85892 95.7726 0.177887 88.7869 0.177887H38.1199C31.1342 0.177887 25.4531 5.85892 25.4531 12.8446V114.179C25.4531 121.164 31.1342 126.845 38.1199 126.845ZM6.453 31.8448H19.1197V19.178H6.453V22.3447H0.119629V28.6781H6.453V31.8448ZM120.454 19.178H107.787V31.8448H120.454V28.6781H126.787V22.3447H120.454V19.178ZM6.453 57.1782H19.1197V44.5115H6.453V47.6782H0.119629V54.0116H6.453V57.1782ZM120.454 44.5115H107.787V57.1782H120.454V54.0116H126.787V47.6782H120.454V44.5115ZM6.453 82.5117H19.1197V69.845H6.453V73.0117H0.119629V79.3451H6.453V82.5117ZM120.454 69.845H107.787V82.5117H120.454V79.3451H126.787V73.0117H120.454V69.845ZM6.453 107.845H19.1197V95.1785H6.453V98.3452H0.119629V104.679H6.453V107.845ZM120.454 95.1785H107.787V107.845H120.454V104.679H126.787V98.3452H120.454V95.1785Z" fill="white"/>
</svg>
